<mxfile modified="2019-11-04T03:15:11.374Z" host="www.draw.io" agent="Mozilla/5.0 (Windows NT 10.0; Win64; x64) AppleWebKit/537.36 (KHTML, like Gecko) Chrome/72.0.3626.119 Safari/537.36" etag="ySX78TL90GbEEmIg0ZtV" version="12.1.9" type="github" pages="1">
  <diagram name="Page-1" id="44bbcf24-548e-d532-59d3-359de5b44cbb">
    <mxGraphModel dx="1422" dy="762" grid="1" gridSize="10" guides="1" tooltips="1" connect="1" arrows="1" fold="1" page="1" pageScale="1.5" pageWidth="1169" pageHeight="826" background="none" math="0" shadow="0">
      <root>
        <mxCell id="0" style=";html=1;"/>
        <mxCell id="1" style=";html=1;" parent="0"/>
        <mxCell id="6eae4fabf1afb631-35" value="" style="whiteSpace=wrap;html=1;strokeColor=none;strokeWidth=1;fillColor=#f5f5f5;fontSize=14;" parent="1" vertex="1">
          <mxGeometry x="224" y="470" width="1075" height="160" as="geometry"/>
        </mxCell>
        <mxCell id="6eae4fabf1afb631-34" value="" style="whiteSpace=wrap;html=1;strokeColor=none;strokeWidth=1;fillColor=#f5f5f5;fontSize=14;fontStyle=1" parent="1" vertex="1">
          <mxGeometry x="214" y="300" width="1416" height="140" as="geometry"/>
        </mxCell>
        <mxCell id="X2A_fAuBWTHjR4ZHLa9y-1" style="edgeStyle=orthogonalEdgeStyle;rounded=0;orthogonalLoop=1;jettySize=auto;html=1;" parent="1" source="6eae4fabf1afb631-21" target="8yOG6ss0a5ZhWmoC1VQD-1" edge="1">
          <mxGeometry relative="1" as="geometry"/>
        </mxCell>
        <mxCell id="6eae4fabf1afb631-21" value="进入资管模块" style="html=1;whiteSpace=wrap;fillColor=#ffff99;strokeColor=#000000;shape=mxgraph.archimate3.application;appType=func;archiType=rounded;fontSize=14;" parent="1" vertex="1">
          <mxGeometry x="376.5" y="330" width="150" height="75" as="geometry"/>
        </mxCell>
        <mxCell id="6eae4fabf1afb631-33" style="edgeStyle=elbowEdgeStyle;rounded=1;elbow=vertical;html=1;dashed=1;startSize=10;endArrow=block;endFill=0;endSize=10;jettySize=auto;orthogonalLoop=1;strokeColor=#808080;fontSize=14;" parent="1" source="6eae4fabf1afb631-32" target="6eae4fabf1afb631-21" edge="1">
          <mxGeometry relative="1" as="geometry"/>
        </mxCell>
        <mxCell id="6eae4fabf1afb631-32" value="" style="html=1;whiteSpace=wrap;fillColor=#ffff99;strokeColor=#000000;shape=mxgraph.archimate3.actor;fontSize=14;" parent="1" vertex="1">
          <mxGeometry x="249" y="320" width="50" height="95" as="geometry"/>
        </mxCell>
        <mxCell id="X2A_fAuBWTHjR4ZHLa9y-6" value="通过" style="edgeStyle=orthogonalEdgeStyle;rounded=0;orthogonalLoop=1;jettySize=auto;html=1;" parent="1" source="8yOG6ss0a5ZhWmoC1VQD-1" target="X2A_fAuBWTHjR4ZHLa9y-2" edge="1">
          <mxGeometry relative="1" as="geometry"/>
        </mxCell>
        <mxCell id="X2A_fAuBWTHjR4ZHLa9y-8" style="edgeStyle=orthogonalEdgeStyle;rounded=0;orthogonalLoop=1;jettySize=auto;html=1;" parent="1" source="8yOG6ss0a5ZhWmoC1VQD-1" target="X2A_fAuBWTHjR4ZHLa9y-7" edge="1">
          <mxGeometry relative="1" as="geometry"/>
        </mxCell>
        <mxCell id="8yOG6ss0a5ZhWmoC1VQD-1" value="填写基本信息，认证短信" style="html=1;whiteSpace=wrap;fillColor=#ffff99;strokeColor=#000000;shape=mxgraph.archimate3.application;appType=func;archiType=rounded;fontSize=14;" parent="1" vertex="1">
          <mxGeometry x="590" y="330" width="170" height="75" as="geometry"/>
        </mxCell>
        <mxCell id="X2A_fAuBWTHjR4ZHLa9y-5" value="通过" style="edgeStyle=orthogonalEdgeStyle;rounded=0;orthogonalLoop=1;jettySize=auto;html=1;" parent="1" source="X2A_fAuBWTHjR4ZHLa9y-2" target="X2A_fAuBWTHjR4ZHLa9y-4" edge="1">
          <mxGeometry relative="1" as="geometry"/>
        </mxCell>
        <mxCell id="X2A_fAuBWTHjR4ZHLa9y-12" style="edgeStyle=orthogonalEdgeStyle;rounded=0;orthogonalLoop=1;jettySize=auto;html=1;entryX=0.5;entryY=0;entryDx=0;entryDy=0;entryPerimeter=0;" parent="1" source="X2A_fAuBWTHjR4ZHLa9y-2" target="8yOG6ss0a5ZhWmoC1VQD-1" edge="1">
          <mxGeometry relative="1" as="geometry">
            <Array as="points">
              <mxPoint x="935" y="270"/>
              <mxPoint x="675" y="270"/>
            </Array>
          </mxGeometry>
        </mxCell>
        <mxCell id="X2A_fAuBWTHjR4ZHLa9y-13" value="不通过" style="text;html=1;resizable=0;points=[];align=center;verticalAlign=middle;labelBackgroundColor=#ffffff;" parent="X2A_fAuBWTHjR4ZHLa9y-12" vertex="1" connectable="0">
          <mxGeometry x="-0.18" y="1" relative="1" as="geometry">
            <mxPoint x="-32" y="-1" as="offset"/>
          </mxGeometry>
        </mxCell>
        <mxCell id="X2A_fAuBWTHjR4ZHLa9y-2" value="人脸识别" style="html=1;whiteSpace=wrap;fillColor=#ffff99;strokeColor=#000000;shape=mxgraph.archimate3.application;appType=func;archiType=rounded;fontSize=14;" parent="1" vertex="1">
          <mxGeometry x="850" y="330" width="170" height="75" as="geometry"/>
        </mxCell>
        <mxCell id="X2A_fAuBWTHjR4ZHLa9y-15" value="无适当性" style="edgeStyle=orthogonalEdgeStyle;rounded=0;orthogonalLoop=1;jettySize=auto;html=1;" parent="1" source="X2A_fAuBWTHjR4ZHLa9y-4" target="X2A_fAuBWTHjR4ZHLa9y-14" edge="1">
          <mxGeometry relative="1" as="geometry"/>
        </mxCell>
        <mxCell id="X2A_fAuBWTHjR4ZHLa9y-17" value="有适当性" style="edgeStyle=orthogonalEdgeStyle;rounded=0;orthogonalLoop=1;jettySize=auto;html=1;" parent="1" source="X2A_fAuBWTHjR4ZHLa9y-4" target="X2A_fAuBWTHjR4ZHLa9y-16" edge="1">
          <mxGeometry relative="1" as="geometry"/>
        </mxCell>
        <mxCell id="X2A_fAuBWTHjR4ZHLa9y-4" value="获取适当性" style="html=1;whiteSpace=wrap;fillColor=#ffff99;strokeColor=#000000;shape=mxgraph.archimate3.application;appType=func;archiType=rounded;fontSize=14;" parent="1" vertex="1">
          <mxGeometry x="1080" y="330" width="170" height="75" as="geometry"/>
        </mxCell>
        <mxCell id="X2A_fAuBWTHjR4ZHLa9y-9" style="edgeStyle=orthogonalEdgeStyle;rounded=0;orthogonalLoop=1;jettySize=auto;html=1;entryX=0.5;entryY=1;entryDx=0;entryDy=0;entryPerimeter=0;" parent="1" source="X2A_fAuBWTHjR4ZHLa9y-7" target="X2A_fAuBWTHjR4ZHLa9y-2" edge="1">
          <mxGeometry relative="1" as="geometry"/>
        </mxCell>
        <mxCell id="X2A_fAuBWTHjR4ZHLa9y-10" value="通过" style="text;html=1;resizable=0;points=[];align=center;verticalAlign=middle;labelBackgroundColor=#ffffff;" parent="X2A_fAuBWTHjR4ZHLa9y-9" vertex="1" connectable="0">
          <mxGeometry x="-0.0631" y="-3" relative="1" as="geometry">
            <mxPoint as="offset"/>
          </mxGeometry>
        </mxCell>
        <mxCell id="X2A_fAuBWTHjR4ZHLa9y-7" value="重新认证短信" style="html=1;whiteSpace=wrap;fillColor=#ffff99;strokeColor=#000000;shape=mxgraph.archimate3.application;appType=func;archiType=rounded;fontSize=14;" parent="1" vertex="1">
          <mxGeometry x="590" y="493.5" width="170" height="75" as="geometry"/>
        </mxCell>
        <mxCell id="X2A_fAuBWTHjR4ZHLa9y-11" value="不通过" style="edgeStyle=orthogonalEdgeStyle;rounded=0;orthogonalLoop=1;jettySize=auto;html=1;" parent="1" source="X2A_fAuBWTHjR4ZHLa9y-7" target="X2A_fAuBWTHjR4ZHLa9y-7" edge="1">
          <mxGeometry relative="1" as="geometry">
            <Array as="points">
              <mxPoint x="520" y="500"/>
            </Array>
          </mxGeometry>
        </mxCell>
        <mxCell id="X2A_fAuBWTHjR4ZHLa9y-18" style="edgeStyle=orthogonalEdgeStyle;rounded=0;orthogonalLoop=1;jettySize=auto;html=1;" parent="1" source="X2A_fAuBWTHjR4ZHLa9y-14" target="6eae4fabf1afb631-21" edge="1">
          <mxGeometry relative="1" as="geometry">
            <Array as="points">
              <mxPoint x="1165" y="660"/>
              <mxPoint x="452" y="660"/>
            </Array>
          </mxGeometry>
        </mxCell>
        <mxCell id="X2A_fAuBWTHjR4ZHLa9y-19" value="做完题" style="text;html=1;resizable=0;points=[];align=center;verticalAlign=middle;labelBackgroundColor=#ffffff;" parent="X2A_fAuBWTHjR4ZHLa9y-18" vertex="1" connectable="0">
          <mxGeometry x="-0.2434" y="4" relative="1" as="geometry">
            <mxPoint as="offset"/>
          </mxGeometry>
        </mxCell>
        <mxCell id="X2A_fAuBWTHjR4ZHLa9y-14" value="跳澎博适当性页面，做题" style="html=1;whiteSpace=wrap;fillColor=#ffff99;strokeColor=#000000;shape=mxgraph.archimate3.application;appType=func;archiType=rounded;fontSize=14;" parent="1" vertex="1">
          <mxGeometry x="1080" y="485" width="170" height="75" as="geometry"/>
        </mxCell>
        <mxCell id="X2A_fAuBWTHjR4ZHLa9y-16" value="进入资管后续模块" style="html=1;whiteSpace=wrap;fillColor=#ffff99;strokeColor=#000000;shape=mxgraph.archimate3.application;appType=func;archiType=rounded;fontSize=14;" parent="1" vertex="1">
          <mxGeometry x="1350" y="330" width="170" height="75" as="geometry"/>
        </mxCell>
      </root>
    </mxGraphModel>
  </diagram>
</mxfile>
